<?xml version="1.0" encoding="UTF-8" standalone="no"?>
<!-- Created with Inkscape (http://www.inkscape.org/) -->

<svg
   width="200mm"
   height="200mm"
   viewBox="0 0 200 200"
   version="1.1"
   id="svg1"
   xmlns:inkscape="http://www.inkscape.org/namespaces/inkscape"
   xmlns:sodipodi="http://sodipodi.sourceforge.net/DTD/sodipodi-0.dtd"
   xmlns:xlink="http://www.w3.org/1999/xlink"
   xmlns="http://www.w3.org/2000/svg"
   xmlns:svg="http://www.w3.org/2000/svg">
  <sodipodi:namedview
     id="namedview1"
     pagecolor="#ffffff"
     bordercolor="#000000"
     borderopacity="0.25"
     inkscape:showpageshadow="2"
     inkscape:pageopacity="0.0"
     inkscape:pagecheckerboard="0"
     inkscape:deskcolor="#d1d1d1"
     inkscape:document-units="mm" />
  <defs
     id="defs1">
    <inkscape:path-effect
       effect="spiro"
       id="path-effect5-3"
       is_visible="true"
       lpeversion="1" />
    <inkscape:path-effect
       effect="spiro"
       id="path-effect5-1-7"
       is_visible="true"
       lpeversion="1" />
  </defs>
  <g
     inkscape:label="Layer 1"
     inkscape:groupmode="layer"
     id="layer1">
    <path
       style="fill:none;fill-opacity:1;stroke:#233115;stroke-width:6;stroke-linecap:butt;stroke-linejoin:bevel;stroke-dasharray:none;stroke-opacity:1"
       d="m 79.123552,149.83784 c 0.08257,-2.67756 0.210008,-5.35374 0.382238,-8.02703 0.404232,-6.27435 1.095706,-12.68215 3.822394,-18.34749 2.454508,-5.09982 6.535382,-9.40161 11.498847,-12.12131 4.963466,-2.71971 10.785369,-3.84411 16.404629,-3.16827"
       id="path4"
       inkscape:path-effect="#path-effect5-3"
       inkscape:original-d="m 79.123552,149.83784 c 0.127413,-2.93051 0.254826,-5.35135 0.382238,-8.02703 0.127413,-2.67568 2.548263,-12.23166 3.822394,-18.34749 1.274132,-6.11583 18.602316,-10.19305 27.903476,-15.28958"
       transform="matrix(1.7513064,0,0,1.5877653,-69.658541,-112.64015)" />
    <path
       style="fill:none;fill-opacity:1;stroke:#233115;stroke-width:7.88367;stroke-linecap:butt;stroke-linejoin:bevel;stroke-dasharray:none;stroke-opacity:1"
       d="m 79.123552,149.83784 c 0.08257,-2.67756 0.210008,-5.35374 0.382238,-8.02703 0.404232,-6.27435 1.095706,-12.68215 3.822394,-18.34749 2.454508,-5.09982 6.535382,-9.40161 11.498847,-12.12131 4.963466,-2.71971 10.785369,-3.84411 16.404629,-3.16827"
       id="path4-4"
       inkscape:path-effect="#path-effect5-1-7"
       inkscape:original-d="m 79.123552,149.83784 c 0.127413,-2.93051 0.254826,-5.35135 0.382238,-8.02703 0.127413,-2.67568 2.548263,-12.23166 3.822394,-18.34749 1.274132,-6.11583 18.602316,-10.19305 27.903476,-15.28958"
       transform="matrix(1.2577148,0,0,1.2219588,-13.087027,-57.12895)" />
    <ellipse
       style="fill:#233115;fill-opacity:1;stroke:#233115;stroke-width:9.73493;stroke-linecap:butt;stroke-linejoin:bevel;stroke-dasharray:none;stroke-opacity:1"
       id="path5"
       cx="115.05253"
       cy="103.57285"
       rx="8.7734404"
       ry="8.8993425" />
    <ellipse
       style="fill:none;fill-opacity:1;stroke:#233115;stroke-width:7.51296;stroke-linecap:butt;stroke-linejoin:bevel;stroke-dasharray:none;stroke-opacity:1"
       id="path6"
       cx="102.51907"
       cy="95.901031"
       rx="57.669598"
       ry="56.48003" />
    <path
       id="path6-2"
       style="fill:none;stroke:none;stroke-width:5.6687;stroke-linejoin:bevel"
       d="m 259.49718,235.36717 a 43.639055,42.492339 0 0 1 -43.63907,42.49233 43.639055,42.492339 0 0 1 -43.63904,-42.49233 43.639055,42.492339 0 0 1 43.63904,-42.49233 43.639055,42.492339 0 0 1 43.63907,42.49233 z" />
    <ellipse
       style="fill:none;fill-opacity:1;stroke:#233115;stroke-width:6.87933;stroke-linecap:butt;stroke-linejoin:bevel;stroke-dasharray:none;stroke-opacity:1"
       id="path6-1"
       cx="100.3019"
       cy="96.374397"
       rx="92.654022"
       ry="90.742828" />
    <text
       xml:space="preserve"
       style="font-style:normal;font-variant:normal;font-weight:normal;font-stretch:normal;font-size:22.5778px;font-family:Haettenschweiler;-inkscape-font-specification:'Haettenschweiler, Normal';font-variant-ligatures:normal;font-variant-caps:normal;font-variant-numeric:normal;font-variant-east-asian:normal;fill:#233115;fill-opacity:1;stroke:none;stroke-width:0.7;stroke-linecap:round;stroke-linejoin:bevel;stroke-dasharray:none;stroke-opacity:1"
       id="text1"
       transform="matrix(-1.3823199,0,0,-1.3538064,400.08985,409.53455)"><textPath
         xlink:href="#path6-2"
         id="textPath1"><tspan
           id="tspan1"
           style="stroke-width:0.7">    E X P O     F I T O</tspan></textPath></text>
    <path
       style="fill:none;fill-opacity:1;stroke:none;stroke-width:4.31591;stroke-linecap:butt;stroke-linejoin:bevel;stroke-dasharray:none;stroke-opacity:1"
       d="m 166.92487,212.80455 c 2.29378,4.49226 5.50061,8.7157 9.47245,12.47535 7.23995,6.85319 17.05219,12.126 27.97846,15.03479 10.92628,2.90882 22.93186,3.44437 34.23255,1.52708 11.30069,-1.9173 21.86055,-6.28132 30.11027,-12.44354 8.24971,-6.16223 14.16303,-14.10305 16.86117,-22.64233"
       id="path2" />
    <text
       xml:space="preserve"
       style="font-style:normal;font-variant:normal;font-weight:normal;font-stretch:normal;font-size:22.5778px;font-family:Haettenschweiler;-inkscape-font-specification:'Haettenschweiler, Normal';font-variant-ligatures:normal;font-variant-caps:normal;font-variant-numeric:normal;font-variant-east-asian:normal;fill:#233115;fill-opacity:1;stroke:none;stroke-width:3.7;stroke-linecap:butt;stroke-linejoin:bevel;stroke-dasharray:none;stroke-opacity:1"
       id="text3"
       transform="matrix(1.2062626,0,0,1.1813808,-169.24924,-108.03565)"
       inkscape:transform-center-x="1.2533587"
       inkscape:transform-center-y="-1.8412402"><textPath
         xlink:href="#path2"
         id="textPath3"><tspan
           id="tspan3"
           style="fill:#233115;fill-opacity:1;stroke:none;stroke-width:3.7;stroke-dasharray:none">      2 ยบ   I N F O   D</tspan></textPath></text>
  </g>
</svg>
